<?xml version="1.0" encoding="UTF-8" standalone="no"?>
<!DOCTYPE svg PUBLIC "-//W3C//DTD SVG 1.1//EN" "http://www.w3.org/Graphics/SVG/1.1/DTD/svg11.dtd">
<svg width="100%" height="100%" viewBox="0 0 250 250" version="1.1" xmlns="http://www.w3.org/2000/svg" xmlns:xlink="http://www.w3.org/1999/xlink" xml:space="preserve" xmlns:serif="http://www.serif.com/" style="fill-rule:evenodd;clip-rule:evenodd;stroke-linejoin:round;stroke-miterlimit:2;">
    <g transform="matrix(3.125,0,0,3.125,0,0)">
        <path d="M80,5.12L80,74.88C80,77.706 77.706,80 74.88,80L5.12,80C2.294,80 0,77.706 0,74.88L0,5.12C0,2.294 2.294,0 5.12,0L74.88,0C77.706,0 80,2.294 80,5.12Z" style="fill:rgb(209,254,23);"/>
    </g>
    <g transform="matrix(3.125,0,0,3.125,0,0)">
        <path d="M64.279,39.6L64.232,39.094C63.794,34.238 60.634,25.102 51.868,25.102C45.363,25.102 40.449,31.523 36.112,37.184C32.651,41.717 29.653,45.606 26.354,45.606C25.477,45.515 24.347,45.077 23.655,44.088C23.033,43.19 22.871,42.039 23.194,40.658C23.701,38.472 26.608,36.447 29.676,34.284C31.359,33.133 33.09,31.913 34.289,30.74C37.75,27.403 39.503,24.987 39.503,21.098C39.503,17.209 37.358,15.275 35.559,14.447C31.96,12.79 26.677,13.756 23.31,16.657C22.802,17.117 22.295,17.554 21.833,17.968C18.442,20.983 16.159,23.031 10.922,21.466L10.922,27.771C17.865,30.832 23.702,24.987 25.916,22.294C27.623,20.522 29.422,19.487 30.761,19.487L30.83,19.487C31.43,19.51 31.937,19.74 32.307,20.154C32.907,20.845 33.138,21.65 33.022,22.548C32.768,24.435 30.807,26.644 27.209,29.06C22.987,31.891 15.928,36.632 15.374,42.592C14.959,46.873 17.174,51.153 20.634,52.81C28.708,56.63 33.622,50.048 38.834,43.098C42.825,37.736 46.608,32.65 51.868,32.65C56.597,32.65 58.35,36.562 58.35,39.025L58.35,39.509L57.889,39.6C46.424,41.626 40.172,52.35 40.172,57.298C40.172,62.245 44.371,66.48 49.538,66.48C55.582,66.48 63.056,61.325 64.255,46.827L64.302,46.298L69.077,46.298L69.077,39.601L64.279,39.601L64.279,39.6ZM58.027,47.033C57.104,55.709 52.652,59.76 49.953,59.76C48.731,59.76 47.024,58.747 47.024,56.86C47.024,54.743 50.184,48.322 57.289,46.413L58.119,46.205L58.027,47.034L58.027,47.033Z" style="fill:rgb(20,20,20);fill-rule:nonzero;"/>
    </g>
</svg>
